<?xml version="1.0" encoding="UTF-8" standalone="no"?>
<svg
   xmlns:dc="http://purl.org/dc/elements/1.1/"
   xmlns:cc="http://creativecommons.org/ns#"
   xmlns:rdf="http://www.w3.org/1999/02/22-rdf-syntax-ns#"
   xmlns:svg="http://www.w3.org/2000/svg"
   xmlns="http://www.w3.org/2000/svg"
   viewBox="0 0 621.33331 157.33333"
   height="157.33333"
   width="621.33331"
   xml:space="preserve"
   id="svg2"
   version="1.1"><metadata
     id="metadata8"><rdf:RDF><cc:Work
         rdf:about=""><dc:format>image/svg+xml</dc:format><dc:type
           rdf:resource="http://purl.org/dc/dcmitype/StillImage" /></cc:Work></rdf:RDF></metadata><defs
     id="defs6" /><g
     transform="matrix(1.3333333,0,0,-1.3333333,0,157.33333)"
     id="g10"><g
       transform="scale(0.1)"
       id="g12"><path
         id="path14"
         style="fill:#e6e6e6;fill-opacity:1;fill-rule:evenodd;stroke:none"
         d="m 1452.34,79.8789 c -0.82,-10.5 -19.76,-20.3906 -56.87,-29.6484 -37.54,-9.25 -89.34,-17.3399 -155.55,-24.211 C 1173.36,18.75 1096.29,13.1211 1008.79,9.05859 921.25,5.46875 827.031,3.58984 726.172,3.58984 625.309,3.58984 531.09,5.62109 443.551,9.64844 356.051,13.3203 278.98,18.75 212.422,26.0195 146.211,32.8906 94.4102,40.9805 56.8789,50.2305 19.7695,59.4883 0.820313,69.3789 0,79.8789 0.820313,90.3516 19.7695,100.23 56.8789,109.488 c 37.5313,9.301 89.3321,17.582 155.5431,24.852 66.558,6.832 143.629,12.301 231.129,16.359 87.539,4.031 181.758,6.063 282.621,6.063 100.859,0 195.078,-2.032 282.618,-6.063 87.5,-4.058 164.57,-9.527 231.13,-16.359 66.21,-7.27 118.01,-15.32 155.55,-24.219 37.11,-9.262 56.05,-19.3827 56.87,-30.2421" /><path
         id="path16"
         style="fill:#00abdc;fill-opacity:1;fill-rule:evenodd;stroke:none"
         d="m 861.719,1022.66 c 14.492,0 29.652,-3.6 45.39,-10.86 20.981,-10.08 36.481,-26.249 46.602,-48.441 l 19.961,-44.769 c 6.058,-13.32 15.308,-25.781 27.848,-37.539 12.11,-11.672 26.41,-21.563 42.97,-29.602 20.98,-10.078 41.56,-15.16 61.68,-15.16 10.94,0 21.6,1.441 32.11,4.262 l 48.4,12.109 c 7.27,1.988 14.73,3 22.38,3 15.35,0 31.49,-4.058 48.4,-12.07 25,-11.75 43.16,-28.469 54.45,-50.27 l 25.47,-47.808 c 12.5,-22.582 14.92,-45.352 7.27,-68.364 -8.09,-23.398 -23.63,-38.519 -46.6,-45.347 l -50.82,-15.781 c -31.88,-9.692 -53.68,-30.43 -65.39,-62.348 -13.72,-35.512 -12.5,-71.371 3.63,-107.692 l 27.23,-60.511 c 12.1,-27.028 14.76,-55.899 7.89,-86.52 -12.11,-26.25 -31.06,-46.801 -56.92,-61.758 l -59.29,-22.972 c -13.33,-3.239 -26.22,-4.84 -38.72,-4.84 -18.16,0 -36.28,3.633 -54.45,10.891 -29.101,18.558 -49.019,42.539 -59.921,72 l -24.18,65.351 c -11.718,32.301 -11.91,60.93 -0.629,85.93 12.899,28.25 34.11,46.84 63.559,55.668 l 56.871,18.16 c 34.69,10.902 58.48,32.461 71.37,64.769 12.11,31.481 10.51,64.332 -4.8,98.59 l -23.6,51.453 c -14.96,32.731 -38.55,56.68 -70.82,72.071 -21.361,10.429 -42.58,15.66 -63.548,15.66 -10.864,-0.352 -21.992,-1.953 -33.282,-4.801 l -53.832,-13.32 c -10.078,-2.422 -19.957,-3.602 -29.648,-3.602 -16.988,0 -33.91,4.18 -50.82,12.66 -23.051,10.942 -39.141,28.911 -48.442,53.911 l -17.578,47.179 c -8.469,23.403 -7.031,43.949 4.262,61.723 11.289,17.738 27.418,28.628 48.398,32.698 3.668,0.78 7.071,1.4 10.309,1.79 l 52,10.28 c 3.672,1.21 6.672,1.99 9.101,2.42 5.231,1.25 10.5,1.8 15.739,1.8" /><path
         id="path18"
         style="fill:#003f66;fill-opacity:1;fill-rule:evenodd;stroke:none"
         d="m 596.051,961.559 c 15.32,0 30.898,-3.829 46.648,-11.52 22.141,-10.43 37.461,-27.617 45.93,-51.449 l 16.992,-47.77 c 12.078,-32.269 34.457,-56.679 67.149,-73.242 20.941,-10.078 42.39,-15.117 64.109,-15.117 12.922,-0.391 26.242,1.211 39.961,4.84 l 53.859,13.91 c 8.52,2.418 16.961,3.629 25.43,3.629 16.531,-0.391 33.281,-4.61 50.201,-12.692 26.25,-12.5 44.57,-30.468 55.08,-53.867 l 23.04,-52.031 c 11.29,-24.219 11.64,-48.789 1.17,-73.789 -10.89,-25.473 -29.21,-42.191 -55.07,-50.27 l -56.878,-17.543 c -38.281,-11.289 -65.551,-34.488 -81.723,-69.609 -8.429,-18.129 -12.89,-36.719 -13.277,-55.66 -0.434,-18.988 3.238,-39.34 10.898,-61.098 l 23.59,-65.98 c 10.469,-29.492 10.469,-61.09 0,-95 C 893.398,145.82 869.18,122.23 840.551,106.48 L 772.77,80.4688 c -12.891,-3.1993 -25.86,-4.8477 -38.75,-4.8477 -20.579,0 -40.5,4.0703 -59.918,12.1094 -32.223,16.5315 -53.012,42.1485 -62.301,76.8395 l -19.379,72.032 c -10.082,36.718 -6.051,68.597 12.109,95.628 17.348,31.442 41.367,51.829 71.989,61.09 l 64.179,20.629 c 41.961,13.281 71.41,37.461 88.36,72.61 8.871,18.132 14.101,36.492 15.742,55 1.179,18.992 -1.25,36.961 -7.301,53.91 l -20.551,55.043 c -12.109,33.078 -36.519,58.707 -73.238,76.867 -21.371,10.473 -43.359,15.742 -65.941,15.742 -13.711,0 -27.848,-1.832 -42.379,-5.422 l -60.512,-15.16 c -9.68,-2.461 -19.367,-3.629 -29.02,-3.629 -18.16,0 -36.328,4.449 -54.449,13.281 -26.25,10.508 -42.969,29.45 -50.281,56.911 l -14.488,51.449 c -6.871,26.211 -2.032,48.398 14.488,66.558 14.961,19.77 33.09,31.871 54.461,36.332 3.672,0.348 7.109,0.778 10.308,1.168 l 58.122,12.11 c 4.031,1.211 7.859,2.23 11.492,3.011 6.828,1.25 13.707,1.829 20.539,1.829" /><path
         id="path20"
         style="fill:#94ba33;fill-opacity:1;fill-rule:evenodd;stroke:none"
         d="m 513.75,1180 c 16.172,0 33.91,-3.01 53.281,-9.06 22.539,-14.92 36.68,-30.82 42.379,-47.82 l 15.121,-41.75 c 6.84,-18.95 4.809,-38.32 -6.051,-58.09 -17,-19.76 -37.968,-32.069 -62.968,-36.909 l -56.25,-11.492 C 461.328,967.23 432.07,950.27 411.48,924.059 390.512,897.422 384.449,867.34 393.359,833.871 L 407.23,781.84 c 8.508,-32.66 29.879,-57.699 64.18,-75.039 22.57,-10.903 48,-16.371 76.25,-16.371 12.11,0 24.371,1.05 36.91,3.05 l 61.129,15.739 c 4.422,1.211 8.281,2.23 11.492,3.011 7.219,2.032 14.719,3.04 22.379,3.04 15.352,0 32.461,-3.821 51.41,-11.481 24.641,-14.961 41.36,-34.527 50.27,-58.711 l 19.961,-56.289 c 10.469,-29.059 9.687,-55.508 -2.422,-79.258 -17.738,-29.019 -40.937,-47.812 -69.609,-56.293 l -63.52,-19.957 c -12.109,-3.672 -23.781,-5.472 -35.07,-5.472 -18.602,-0.43 -36.918,4.261 -55.078,13.91 -25.434,16.172 -44.422,38.359 -56.883,66.562 l -15.738,59.34 c -10.121,36.328 -32.661,63.359 -67.813,81.09 -25,12.539 -50.387,18.75 -76.25,18.75 -13.707,0 -27.808,-1.84 -42.348,-5.43 l -67.14,-16.953 c -12.11,-2.848 -24.219,-4.219 -36.289,-4.219 -18.172,0 -36.141,3.403 -53.91,10.27 -25.821,16.531 -40.942,37.5 -45.391,62.891 l -9.648,55.71 c -4.4536,27.418 2.226,51.442 19.957,71.989 19.769,23.402 44.769,38.16 75.043,44.222 l 63.519,12.649 c 41.168,8.519 72.219,26.058 93.199,52.699 20.59,26.211 26.84,54.021 18.75,83.481 l -12.109,44.8 c -5.231,19.34 -0.191,39.53 15.16,60.55 16.52,15.66 37.109,25.54 61.719,29.61 l 53.238,8.47 c 6.832,1.21 13.942,1.8 21.172,1.8" /><path
         id="path22"
         style="fill:#004166;fill-opacity:1;fill-rule:nonzero;stroke:none"
         d="m 2292.19,202.031 c 0,15.199 -4.18,26.879 -12.5,35 -8.24,8.129 -23.13,16.02 -44.69,23.75 -21.56,7.699 -38.09,15.778 -49.53,24.219 -11.37,8.441 -19.92,18.051 -25.63,28.91 -5.62,10.93 -8.43,23.36 -8.43,37.34 0,24.141 8.04,44.059 24.21,59.691 16.26,15.7 37.43,23.59 63.6,23.59 17.89,0 33.83,-4.019 47.81,-12.031 14.06,-8.051 24.85,-19.18 32.35,-33.441 7.57,-14.289 11.4,-29.957 11.4,-47.028 h -38.59 c 0,18.828 -4.61,33.438 -13.75,43.75 -9.06,10.391 -22.15,15.629 -39.22,15.629 -15.55,0 -27.58,-4.379 -36.1,-13.129 -8.55,-8.672 -12.81,-20.781 -12.81,-36.402 0,-12.93 4.57,-23.719 13.75,-32.348 9.26,-8.672 23.6,-16.41 42.97,-23.281 30.08,-10 51.6,-22.301 64.53,-36.871 12.89,-14.5 19.38,-33.52 19.38,-57.039 0,-24.801 -8.09,-44.641 -24.22,-59.531 -16.06,-14.918 -37.93,-22.34 -65.63,-22.34 -17.81,0 -34.21,3.871 -49.21,11.562 -15,7.809 -26.84,18.75 -35.47,32.809 -8.68,14.07 -12.97,30.199 -12.97,48.441 h 38.59 c 0,-18.871 5.24,-33.551 15.78,-44.062 10.63,-10.547 25.04,-15.778 43.28,-15.778 16.96,0 29.73,4.289 38.29,12.969 8.51,8.75 12.81,20.621 12.81,35.621 z m 287.85,48.59 c 0,-41.672 -8.91,-73.82 -26.72,-96.402 -17.81,-22.5 -43.09,-33.75 -75.78,-33.75 -31.56,0 -56.49,10.941 -74.69,32.812 -18.24,21.949 -27.73,52.969 -28.44,92.969 v 57.5 c 0,40.941 8.99,72.969 27.04,96.09 18.12,23.129 43.32,34.691 75.62,34.691 32.19,0 57.23,-11.09 75.16,-33.281 18,-22.191 27.26,-53.871 27.81,-95 z m -38.44,53.598 c 0,32.261 -5.31,56.293 -15.94,72.031 -10.54,15.82 -26.71,23.75 -48.59,23.75 -21.17,0 -37.15,-8.051 -47.97,-24.059 -10.86,-15.941 -16.33,-39.461 -16.4,-70.472 v -54.848 c 0,-31.172 5.39,-54.961 16.25,-71.402 10.82,-16.367 27.03,-24.528 48.59,-24.528 21.56,0 37.5,7.539 47.81,22.649 10.39,15.082 15.82,38.281 16.25,69.539 z" /><path
         id="path24"
         style="fill:#004166;fill-opacity:1;fill-rule:nonzero;stroke:none"
         d="m 2678.4,157.66 h 120 v -32.969 h -158.6 v 305.778 h 38.6 z" /><path
         id="path26"
         style="fill:#004166;fill-opacity:1;fill-rule:nonzero;stroke:none"
         d="M 3015.16,430.469 V 213.121 c -0.24,-28.98 -8.6,-51.672 -25.16,-68.121 -16.48,-16.371 -39.49,-24.531 -69.06,-24.531 -30.24,0 -53.36,8.011 -69.38,24.062 -15.94,16.02 -24.02,38.91 -24.22,68.59 v 217.348 h 38.13 V 214.531 c 0,-20.551 4.37,-35.902 13.12,-46.09 8.75,-10.121 22.86,-15.16 42.35,-15.16 19.57,0 33.75,5.039 42.5,15.16 8.75,10.188 13.12,25.539 13.12,46.09 v 215.938 z" /><path
         id="path28"
         style="fill:#004166;fill-opacity:1;fill-rule:nonzero;stroke:none"
         d="m 3253.59,397.191 h -80.47 v -272.5 h -38.43 v 272.5 h -80.16 v 33.278 h 199.06 z" /><path
         id="path30"
         style="fill:#004166;fill-opacity:1;fill-rule:nonzero;stroke:none"
         d="m 3300.82,124.691 h 38.4414 V 430.468 H 3300.82 Z" /><path
         id="path32"
         style="fill:#004166;fill-opacity:1;fill-rule:nonzero;stroke:none"
         d="m 3605.51,250.621 c 0,-41.672 -8.91,-73.82 -26.72,-96.402 -17.81,-22.5 -43.09,-33.75 -75.78,-33.75 -31.56,0 -56.49,10.941 -74.69,32.812 -18.24,21.949 -27.73,52.969 -28.44,92.969 v 57.5 c 0,40.941 8.99,72.969 27.03,96.09 18.13,23.129 43.32,34.691 75.63,34.691 32.19,0 57.23,-11.09 75.16,-33.281 18,-22.191 27.26,-53.871 27.81,-95 z m -38.44,53.598 c 0,32.261 -5.31,56.293 -15.94,72.031 -10.54,15.82 -26.72,23.75 -48.59,23.75 -21.17,0 -37.15,-8.051 -47.97,-24.059 -10.86,-15.941 -16.33,-39.461 -16.41,-70.472 v -54.848 c 0,-31.172 5.39,-54.961 16.25,-71.402 10.82,-16.367 27.04,-24.528 48.6,-24.528 21.56,0 37.5,7.539 47.81,22.649 10.39,15.082 15.82,38.281 16.25,69.539 z" /><path
         id="path34"
         style="fill:#004166;fill-opacity:1;fill-rule:nonzero;stroke:none"
         d="m 3864.96,124.691 h -38.59 l -122.5,235.618 V 124.691 h -38.6 v 305.778 h 38.6 L 3826.68,193.75 v 236.719 h 38.28 z" /><path
         id="path36"
         style="fill:#004166;fill-opacity:1;fill-rule:nonzero;stroke:none"
         d="m 4065.08,202.031 c 0,15.199 -4.18,26.879 -12.5,35 -8.24,8.129 -23.13,16.02 -44.69,23.75 -21.56,7.699 -38.09,15.778 -49.53,24.219 -11.37,8.441 -19.92,18.051 -25.63,28.91 -5.62,10.93 -8.43,23.36 -8.43,37.34 0,24.141 8.04,44.059 24.22,59.691 16.25,15.7 37.42,23.59 63.59,23.59 17.89,0 33.83,-4.019 47.81,-12.031 14.06,-8.051 24.85,-19.18 32.35,-33.441 7.57,-14.289 11.4,-29.957 11.4,-47.028 h -38.59 c 0,18.828 -4.61,33.438 -13.75,43.75 -9.06,10.391 -22.15,15.629 -39.22,15.629 -15.55,0 -27.58,-4.379 -36.09,-13.129 -8.56,-8.672 -12.82,-20.781 -12.82,-36.402 0,-12.93 4.57,-23.719 13.75,-32.348 9.26,-8.672 23.6,-16.41 42.97,-23.281 30.08,-10 51.6,-22.301 64.53,-36.871 12.89,-14.5 19.38,-33.52 19.38,-57.039 0,-24.801 -8.09,-44.641 -24.22,-59.531 -16.06,-14.918 -37.93,-22.34 -65.63,-22.34 -17.81,0 -34.21,3.871 -49.21,11.562 -15,7.809 -26.84,18.75 -35.47,32.809 -8.68,14.07 -12.97,30.199 -12.97,48.441 h 38.59 c 0,-18.871 5.24,-33.551 15.78,-44.062 10.63,-10.547 25.04,-15.778 43.28,-15.778 16.96,0 29.73,4.289 38.29,12.969 8.51,8.75 12.81,20.621 12.81,35.621 z" /><path
         id="path38"
         style="fill:#004166;fill-opacity:1;fill-rule:nonzero;stroke:none"
         d="m 1990.12,568.828 h -65.63 l -207.81,400 v -400 h -65.63 v 519.062 h 65.63 l 208.44,-401.718 v 401.718 h 65 z M 2440.7,782.73 c 0,-70.851 -15.11,-125.429 -45.31,-163.75 -30.23,-38.242 -73.12,-57.339 -128.75,-57.339 -53.44,0 -95.7,18.589 -126.72,55.781 -30.94,37.187 -47.03,89.769 -48.28,157.808 v 97.661 c 0,69.379 15.31,123.668 45.94,162.969 30.7,39.37 73.51,59.06 128.44,59.06 54.57,0 97.1,-18.87 127.65,-56.56 30.63,-37.62 46.29,-91.372 47.03,-161.251 z m -65.31,90.79 c 0,54.878 -8.98,95.699 -26.87,122.5 -17.93,26.75 -45.43,40.15 -82.5,40.15 -35.94,0 -63.13,-13.55 -81.57,-40.619 -18.36,-27.11 -27.65,-67.031 -27.97,-119.852 V 782.73 c 0,-53.039 9.22,-93.429 27.66,-121.25 18.44,-27.808 45.94,-41.71 82.5,-41.71 36.64,0 63.75,12.808 81.25,38.429 17.58,25.711 26.76,65.082 27.5,118.129 z" /><path
         id="path40"
         style="fill:#004166;fill-opacity:1;fill-rule:nonzero;stroke:none"
         d="m 2683.32,668.98 118.75,418.91 h 71.56 l -161.4,-519.062 h -57.03 l -161.1,519.062 h 71.25 z" /><path
         id="path42"
         style="fill:#004166;fill-opacity:1;fill-rule:nonzero;stroke:none"
         d="m 3159.18,704.301 h -175.31 l -40.32,-135.473 h -67.03 l 167.19,519.062 h 55.94 l 167.5,-519.062 h -67.03 z m -158.28,56.25 h 141.56 l -70.94,236.09 z" /><path
         id="path44"
         style="fill:#004166;fill-opacity:1;fill-rule:nonzero;stroke:none"
         d="m 3403.4,624.77 h 203.59 v -55.942 h -269.22 v 519.062 h 65.63 z" /><path
         id="path46"
         style="fill:#004166;fill-opacity:1;fill-rule:nonzero;stroke:none"
         d="m 3687.03,568.828 h 65.3086 v 519.063 H 3687.03 Z" /><path
         id="path48"
         style="fill:#004166;fill-opacity:1;fill-rule:nonzero;stroke:none"
         d="m 4205.78,568.828 h -65.62 l -207.82,400 v -400 h -65.62 v 519.062 h 65.62 l 208.44,-401.718 v 401.718 h 65 z" /><path
         id="path50"
         style="fill:#004166;fill-opacity:1;fill-rule:nonzero;stroke:none"
         d="m 4434.96,808.051 -50.94,-61.723 v -177.5 h -65.31 v 519.062 h 65.31 V 837.27 l 42.66,56.71 139.84,193.91 h 78.44 L 4476.21,859.301 4658.09,568.828 h -78.13 z" /></g></g></svg>